<svg width="512" height="512" viewBox="0 0 512 512" fill="none" xmlns="http://www.w3.org/2000/svg">
<path d="M55.68 393.172C78.5778 415.501 106.24 426.665 138.667 426.665H394.667C421.404 426.665 444.089 417.35 462.72 398.719C481.351 380.088 490.667 357.403 490.667 330.665C490.667 306.203 482.56 284.87 466.347 266.665C450.276 248.176 429.938 237.51 405.333 234.665C405.333 192.994 390.827 157.723 361.813 128.852C332.942 99.8387 297.671 85.332 256 85.332C222.293 85.332 192.071 95.5009 165.333 115.839C138.738 136.034 120.96 162.488 112 195.199C84.9778 201.172 63.0756 215.039 46.2933 236.799C29.6533 258.559 21.3333 283.305 21.3333 311.039C21.3333 343.323 32.7822 370.701 55.68 393.172Z" fill="url(#paint0_linear_8181_1342)"/>
<path d="M429.823 469.333H380.844V383.354H341.333L405.333 320L469.333 383.354H429.823V469.333Z" fill="#4300AD"/>
<defs>
<linearGradient id="paint0_linear_8181_1342" x1="490.667" y1="298.665" x2="21.3333" y2="298.665" gradientUnits="userSpaceOnUse">
<stop stop-color="white"/>
<stop offset="1" stop-color="#BBB6F0"/>
</linearGradient>
</defs>
</svg>
