<svg width="512" height="512" viewBox="0 0 512 512" fill="none" xmlns="http://www.w3.org/2000/svg">
<path d="M256 85.332C297.671 85.332 332.941 99.8395 361.812 128.853C390.826 157.724 405.333 192.994 405.333 234.665C429.938 237.51 450.283 248.176 466.354 266.665C482.565 284.869 490.667 306.205 490.667 330.665C490.667 336.655 490.164 342.436 489.229 348.02C472.83 318.587 441.418 298.665 405.333 298.665C352.314 298.665 309.333 341.646 309.333 394.665C309.333 405.89 311.293 416.653 314.833 426.665H138.667C106.24 426.665 78.5852 415.494 55.6875 393.165C32.7901 370.695 21.3337 343.324 21.3333 311.04C21.3333 283.307 29.6516 258.55 46.2916 236.79C63.0731 215.033 84.9804 201.18 112 195.207C120.96 162.496 138.738 136.028 165.333 115.832C192.07 95.4959 222.295 85.332 256 85.332Z" fill="black" fill-opacity="0.13"/>
<path d="M429.823 469.333H380.844V383.354H341.333L405.333 320L469.333 383.354H429.823V469.333Z" fill="black" fill-opacity="0.42"/>
</svg>
